<svg xmlns="http://www.w3.org/2000/svg" width="380.51" height="425.306" viewBox="0 0 380.51 425.306">
  <g id="plants" transform="translate(-1196.839 -1581.87)">
    <g id="Leaves" transform="translate(1191.294 1866.685) rotate(-59)" opacity="0.8">
      <path id="Path_202" data-name="Path 202" d="M285.1,239.14s-15.058-6.181-62.8,15.752-53.609,19.114-66,15.745-19.314-4.187-32.537-22.654c0,0-9.438-50.924-18.509-58.828S57.6,193.586,57.6,193.586s-46.04,10.581-55.1-51.3c0,0,6.15-46.612-2.4-60.928,0,0,17.192,7.522,45.389-4.437S96.37,90,96.37,90s7.233,18.587,6.459,29.541,3.764,15.239,17.331,9.927c0,0,6.635-9.47-2.854-25.124S101.134,77.054,103.768,64.9s10.051-28.968,34.262-37.328,57.091-9.887,72.786-16.4S230.628.268,230.628.268s-9.7,9.73,13.3,51.2,8.392,59.338,8.392,59.338-12.047,29.1-65.84,26.567c0,0-51.786,1.75-23.51,23.86,0,0,18.1-3.7,45.1-12.186s46.527,27.1,51.511,51.824C264.435,225.6,285.1,239.14,285.1,239.14Z" transform="translate(2.713 4.514)" fill="#38d39f"/>
      <path id="Path_203" data-name="Path 203" d="M40.536.179,40.8.047C42.935,7.874,19.991,39.372.339,64.249l-.264-.133C27.9,29.05,42.27,6.282,40.536.179Z" transform="translate(172.65 35.228)" fill="#444053"/>
      <path id="Path_204" data-name="Path 204" d="M55.794.065l.133.265C40.218,20.3,20.547,44.108,4.832,61.695,3.38,63.414,1.8,65.133.475,66.985l-.4-.4c1.452-1.852,2.9-3.571,4.49-5.29C20.148,43.709,40.218,20.037,55.794.065Z" transform="translate(117.225 93.061)" fill="#444053"/>
      <path id="Path_205" data-name="Path 205" d="M36.329.042l.265.531C8.036,36.453,6.186,92.291,6.187,92.822L.1,85.91C.23,85.247,7.508,36.186,36.329.042Z" transform="translate(80.978 167.835)" fill="#444053"/>
      <path id="Path_206" data-name="Path 206" d="M225.8,117.9s-34.2-17.659-60.877-11.376S78.262,83.982,78.262,83.982,52.75,73.613,47.652,61.97c0,0-17.525-18.413-18.48-27.8S11.078.819,0,0" transform="translate(28.64 97.848)" fill="none" stroke="#444053" stroke-miterlimit="10" stroke-width="1"/>
      <path id="Path_207" data-name="Path 207" d="M15.294,24.96S-1.8,13.386.158,0" transform="translate(234.231 216.385)" fill="none" stroke="#444053" stroke-miterlimit="10" stroke-width="1"/>
      <path id="Path_208" data-name="Path 208" d="M26.951,43.813S2.462,34.873,0,0" transform="translate(191.598 212.534)" fill="none" stroke="#444053" stroke-miterlimit="10" stroke-width="1"/>
      <path id="Path_209" data-name="Path 209" d="M17.207,53.37S-6.036,33.946,1.53,0" transform="translate(161.735 212.005)" fill="none" stroke="#444053" stroke-miterlimit="10" stroke-width="1"/>
      <path id="Path_210" data-name="Path 210" d="M7.42,53.9S-7.929,21.21,5.6.007" transform="translate(123.916 201.92)" fill="none" stroke="#444053" stroke-miterlimit="10" stroke-width="1"/>
      <path id="Path_211" data-name="Path 211" d="M14.406.017S-3.2,5.539.533,14.953" transform="translate(240.396 195.118)" fill="none" stroke="#444053" stroke-miterlimit="10" stroke-width="1"/>
      <path id="Path_212" data-name="Path 212" d="M24.153.028S.5,7.53.048,40.94" transform="translate(204.44 162.8)" fill="none" stroke="#444053" stroke-miterlimit="10" stroke-width="1"/>
      <path id="Path_213" data-name="Path 213" d="M19.958.023S-1.494,26.634.145,50.779" transform="translate(175.496 154.864)" fill="none" stroke="#444053" stroke-miterlimit="10" stroke-width="1"/>
      <path id="Path_214" data-name="Path 214" d="M18.861.022S-2.516,20.39.288,31.8" transform="translate(138.771 165.306)" fill="none" stroke="#444053" stroke-miterlimit="10" stroke-width="1"/>
      <path id="Path_215" data-name="Path 215" d="M22.966,3.066S2.935,6.558,0,0" transform="translate(121.812 154.982)" fill="none" stroke="#444053" stroke-miterlimit="10" stroke-width="1"/>
      <path id="Path_216" data-name="Path 216" d="M0,0S10.234,13.4,12.744,10.49" transform="translate(118.571 133.65)" fill="none" stroke="#444053" stroke-miterlimit="10" stroke-width="1"/>
      <path id="Path_217" data-name="Path 217" d="M62.133,11.555S11.448,15.111,0,0" transform="translate(157.081 113.614)" fill="none" stroke="#444053" stroke-miterlimit="10" stroke-width="1"/>
      <path id="Path_218" data-name="Path 218" d="M0,0S23.807,50.953,41.025,57.487" transform="translate(107.777 65.518)" fill="none" stroke="#444053" stroke-miterlimit="10" stroke-width="1"/>
      <path id="Path_219" data-name="Path 219" d="M0,0S14.649,46.842,32.661,61.6" transform="translate(132.715 44.286)" fill="none" stroke="#444053" stroke-miterlimit="10" stroke-width="1"/>
      <path id="Path_220" data-name="Path 220" d="M61.586.271S23.133,16.332,0,0" transform="translate(183.939 86.212)" fill="none" stroke="#444053" stroke-miterlimit="10" stroke-width="0.75"/>
      <path id="Path_221" data-name="Path 221" d="M0,0S8.8,34.5,20.711,42.883" transform="translate(166.997 37.437)" fill="none" stroke="#444053" stroke-miterlimit="10" stroke-width="0.75"/>
      <path id="Path_222" data-name="Path 222" d="M29.727.034S8.113,8.084,0,1.795" transform="translate(204.928 53.669)" fill="none" stroke="#444053" stroke-miterlimit="10" stroke-width="0.75"/>
      <path id="Path_223" data-name="Path 223" d="M8.12.009S8.189,30.13.037,32.233" transform="translate(91.779 144.926)" fill="none" stroke="#444053" stroke-miterlimit="10" stroke-width="1"/>
      <path id="Path_224" data-name="Path 224" d="M.016,13.777S32.528,16.618,47.481.055" transform="translate(36.622 169.893)" fill="none" stroke="#444053" stroke-miterlimit="10" stroke-width="1"/>
      <path id="Path_225" data-name="Path 225" d="M29.471.034S21.733,30.5.045,38.664" transform="translate(61.922 109.162)" fill="none" stroke="#444053" stroke-miterlimit="10" stroke-width="1"/>
      <path id="Path_226" data-name="Path 226" d="M.014,12.209S22.984,20.171,42.837.05" transform="translate(17.104 139.188)" fill="none" stroke="#444053" stroke-miterlimit="10" stroke-width="1"/>
      <path id="Path_227" data-name="Path 227" d="M16.2.019S14.145,25.877.044,37.914" transform="translate(49.496 82.728)" fill="none" stroke="#444053" stroke-miterlimit="10" stroke-width="1"/>
      <path id="Path_228" data-name="Path 228" d="M.007,6.025s19.107.176,23.6-6" transform="translate(18.026 105.848)" fill="none" stroke="#444053" stroke-miterlimit="10" stroke-width="1"/>
    </g>
    <g id="leaves-2" data-name="leaves" transform="matrix(0.978, 0.208, -0.208, 0.978, 1322.869, 1574.629)" opacity="0.6">
      <path id="Path_114" data-name="Path 114" d="M66.262,62.59S51.626,36.67,29.592,29.219A45.137,45.137,0,0,1,6.759,12.135,79.4,79.4,0,0,1,0,0" transform="translate(15.767 40.684)" fill="none" stroke="#535461" stroke-miterlimit="10" stroke-width="2"/>
      <path id="Path_115" data-name="Path 115" d="M1.983,10.977c2.5,2.448,14.21,4.95,14.21,4.95s-2.874-11.6-5.376-14.051a6.265,6.265,0,0,0-8.941,0,6.265,6.265,0,0,0,0,8.941c0,.053.053.106.106.16Z" transform="translate(0 24.917)" fill="#38d39f"/>
      <path id="Path_116" data-name="Path 116" d="M5.093,12.58c3.406.692,14.636-3.566,14.636-3.566S11,.818,7.595.126a6.344,6.344,0,0,0-7.451,5,6.243,6.243,0,0,0,4.95,7.451Z" transform="translate(3.489 44.337)" fill="#38d39f"/>
      <path id="Path_117" data-name="Path 117" d="M8.426,12.249c3.3-1.118,10.8-10.432,10.8-10.432S7.575-.844,4.275.274A6.337,6.337,0,1,0,8.426,12.249Z" transform="translate(24.213 67.394)" fill="#38d39f"/>
      <path id="Path_118" data-name="Path 118" d="M7.328,12.55c3.459-.585,12.454-8.462,12.454-8.462S8.765-.489,5.306.043A6.335,6.335,0,0,0,7.328,12.55Z" transform="translate(47.398 80.186)" fill="#38d39f"/>
      <path id="Path_119" data-name="Path 119" d="M12.667,6.333c0,3.513-6.333,13.625-6.333,13.625S0,9.846,0,6.333a6.334,6.334,0,0,1,12.667,0Z" transform="translate(20.291 37.97)" fill="#38d39f"/>
      <path id="Path_120" data-name="Path 120" d="M12.308,8.23C11.244,11.583,2.2,19.353,2.2,19.353S-.838,7.751.226,4.451A6.329,6.329,0,0,1,12.308,8.23Z" transform="translate(46.304 51.721)" fill="#38d39f"/>
      <path id="Path_121" data-name="Path 121" d="M12.593,7.192C12.114,10.651,4.5,19.859,4.5,19.859S-.446,8.948.033,5.489a6.338,6.338,0,1,1,12.561,1.7Z" transform="translate(68.851 71.387)" fill="#38d39f"/>
      <path id="Path_122" data-name="Path 122" d="M1.983,10.977c2.5,2.448,14.21,4.95,14.21,4.95s-2.874-11.6-5.376-14.051a6.265,6.265,0,0,0-8.941,0,6.265,6.265,0,0,0,0,8.941c0,.053.053.106.106.16Z" transform="translate(0 24.917)" opacity="0.25"/>
      <path id="Path_123" data-name="Path 123" d="M5.093,12.58c3.406.692,14.636-3.566,14.636-3.566S11,.818,7.595.126a6.344,6.344,0,0,0-7.451,5,6.243,6.243,0,0,0,4.95,7.451Z" transform="translate(3.489 44.337)" opacity="0.25"/>
      <path id="Path_124" data-name="Path 124" d="M8.426,12.249c3.3-1.118,10.8-10.432,10.8-10.432S7.575-.844,4.275.274A6.337,6.337,0,1,0,8.426,12.249Z" transform="translate(24.213 67.394)" opacity="0.25"/>
      <path id="Path_125" data-name="Path 125" d="M7.328,12.55c3.459-.585,12.454-8.462,12.454-8.462S8.765-.489,5.306.043A6.335,6.335,0,0,0,7.328,12.55Z" transform="translate(47.398 80.186)" opacity="0.25"/>
      <path id="Path_126" data-name="Path 126" d="M12.667,6.333c0,3.513-6.333,13.625-6.333,13.625S0,9.846,0,6.333a6.334,6.334,0,0,1,12.667,0Z" transform="translate(20.291 37.97)" opacity="0.25"/>
      <path id="Path_127" data-name="Path 127" d="M12.308,8.23C11.244,11.583,2.2,19.353,2.2,19.353S-.838,7.751.226,4.451A6.329,6.329,0,0,1,12.308,8.23Z" transform="translate(46.304 51.721)" opacity="0.25"/>
      <path id="Path_128" data-name="Path 128" d="M12.593,7.192C12.114,10.651,4.5,19.859,4.5,19.859S-.446,8.948.033,5.489a6.338,6.338,0,1,1,12.561,1.7Z" transform="translate(68.851 71.387)" opacity="0.25"/>
      <path id="Path_129" data-name="Path 129" d="M35.234,84.039s-2.874-29.645-20.012-45.4A44.7,44.7,0,0,1,1.277,13.785,75.068,75.068,0,0,1,0,0" transform="translate(45.998 18.756)" fill="none" stroke="#535461" stroke-miterlimit="10" stroke-width="2"/>
      <path id="Path_130" data-name="Path 130" d="M.47,8.7C1.8,11.944,11.434,18.969,11.434,18.969s2.076-11.762.8-15.009A6.34,6.34,0,1,0,.47,8.7Z" transform="translate(34.83 0)" fill="#38d39f"/>
      <path id="Path_131" data-name="Path 131" d="M2.7,11.538C5.577,13.56,17.5,14.2,17.5,14.2s-4.63-11.017-7.5-13.04A6.342,6.342,0,0,0,2.7,11.538Z" transform="translate(30.149 19.087)" fill="#38d39f"/>
      <path id="Path_132" data-name="Path 132" d="M5.82,12.64c3.46.266,14.1-5.163,14.1-5.163S10.344.346,6.885.026A6.329,6.329,0,1,0,5.82,12.64Z" transform="translate(39.805 48.481)" fill="#38d39f"/>
      <path id="Path_133" data-name="Path 133" d="M5.036,12.594c3.406.852,14.8-2.714,14.8-2.714S11.583,1.2,8.23.3A6.279,6.279,0,0,0,.3,4.451a6.279,6.279,0,0,0,4.151,7.93,4.043,4.043,0,0,1,.586.213Z" transform="translate(55.491 69.497)" fill="#38d39f"/>
      <path id="Path_134" data-name="Path 134" d="M12.179,8.935c-1.437,3.193-11.337,9.9-11.337,9.9S-.861,7.019.576,3.773a6.35,6.35,0,1,1,11.6,5.163Z" transform="translate(48.029 19.987)" fill="#38d39f"/>
      <path id="Path_135" data-name="Path 135" d="M13.785,10.5C11.5,13.107,0,16.566,0,16.566S1.916,4.751,4.258,2.143A6.336,6.336,0,1,1,13.785,10.5Z" transform="translate(63.561 43.119)" fill="#38d39f"/>
      <path id="Path_136" data-name="Path 136" d="M12.508,9.682C10.7,12.663,0,17.985,0,17.985S-.105,6.01,1.757,3.029A6.322,6.322,0,1,1,12.508,9.682Z" transform="translate(78.143 70.227)" fill="#38d39f"/>
    </g>
  </g>
</svg>
